<svg id="SvgjsSvg1000" xmlns="http://www.w3.org/2000/svg" version="1.1" xmlns:xlink="http://www.w3.org/1999/xlink" xmlns:svgjs="http://svgjs.com/svgjs" width="11" height="11" viewBox="0 0 11 11"><title>Прямоугольник 5 kопировать 7</title><desc>Created with Avocode.</desc><defs id="SvgjsDefs1001"></defs><path id="SvgjsPath1007" d="M885.541 221.257L886.248 220.55L890.4920000000001 224.79308L894.7360000000001 220.55L895.4430000000001 221.257L891.1990800000001 225.5L895.4430000000001 229.743L894.7360000000001 230.45L890.4920000000001 226.20692L886.248 230.45L885.541 229.743L889.78492 225.5Z " fill="#fdfcfc" fill-opacity="1" transform="matrix(1,0,0,1,-885,-220)"></path><path id="SvgjsPath1008" d="M885.541 221.257L886.248 220.55L890.4920000000001 224.79308L894.7360000000001 220.55L895.4430000000001 221.257L891.1990800000001 225.5L895.4430000000001 229.743L894.7360000000001 230.45L890.4920000000001 226.20692L886.248 230.45L885.541 229.743L889.78492 225.5Z " fill="#000000" fill-opacity="1" transform="matrix(1,0,0,1,-885,-220)"></path></svg>