<svg xmlns:rdf="http://www.w3.org/1999/02/22-rdf-syntax-ns#" xmlns="http://www.w3.org/2000/svg" viewBox="0 0 48 48" version="1.1" xmlns:cc="http://creativecommons.org/ns#" xmlns:dc="http://purl.org/dc/elements/1.1/">
 <path d="m3.0677 46.127c-0.58724-1.0973-1.0677-3.6253-1.0677-5.6179s-0.49948-5.6065-1.11-8.0309c-0.8122-3.2255-0.81286-5.2603-0.0025-7.585 0.81389-2.3347 0.80808-4.1763-0.02192-6.9466-0.98791-3.2974-0.83734-4.373 1.2017-8.5852 1.2822-2.6486 2.2466-5.8382 2.1431-7.0881-0.1033-1.2503 0.257-2.273 0.8008-2.273 1.6526 0 1.1082 4.8456-1.0112 9-1.1 2.1562-2 5.2332-2 6.8377 0 4.8506 1.5962 5.3805 12.758 4.235 5.4677-0.56109 10.684-1.3053 11.592-1.6537 0.90803-0.34844 2.5748-2.7228 3.7039-5.2763 3.285-7.4291 9.9457-13.146 9.9457-8.5367 0 0.88334 1.134 2.4981 2.52 3.5883s3.1628 3.2254 3.9486 4.7448c1.2476 2.4125 1.2379 3.0349-0.07668 4.9117-0.96 1.371-2.571 2.149-4.449 2.149-2.8183 0-2.9433 0.18965-2.9433 4.4652 0 3.5236-0.62521 5.1773-2.9647 7.8419-2.7828 3.1694-2.9147 3.6932-2.1493 8.5348 0.643 4.067 0.53 5.158-0.535 5.158-0.877 0-1.384-1.315-1.447-3.75l-0.09561-3.75-1.5869 4.7725c-2.0085 6.0402-3.761 5.5417-3.592-1.0219l0.1298-5.042-3.1298 0.91765c-1.7214 0.50471-5.5146 0.62815-8.4293 0.27431l-5.2995-0.64334 0.68741 2.8714c0.37808 1.5793 1.1305 3.4339 1.672 4.1214 0.70111 0.89013 0.52086 1.25-0.62607 1.25-1.1058 0-1.8111-1.2538-2.2503-4-0.3518-2.2-1.0321-4-1.5118-4-0.78732 0-0.98494 1.1158-1.3149 7.4239-0.14029 2.6818-2.2075 3.098-3.4896 0.70261zm5.2439-10.157c1.8944-1.49 2.6884-3.039 2.6884-5.243 0-2.4524 0.26201-2.8654 1.214-1.9135 0.91513 0.91513 0.94249 1.9332 0.11115 4.1357-1.293 3.426-0.415 4.051 5.692 4.051 5.5442 0 8.828-1.533 9.5638-4.4646 0.35-1.394 1.085-2.535 1.634-2.535 0.54922 0 0.74166 0.66952 0.42765 1.4878-0.31401 0.8183-0.80486 3.8558-1.0908 6.75l-0.52 5.262 1.4608-4.3897c0.80341-2.4143 2.4186-5.0607 3.5894-5.8807 2.3731-1.6622 4.9174-7.0108 4.9174-10.337 0-1.1945-0.7875-2.7515-1.75-3.4599-1.5085-1.1103-1.1012-1.2637 2.9514-1.1116 5.4604 0.20494 7.8777-1.4076 6.1435-4.0983-0.61059-0.94736-1.9505-1.5912-2.9775-1.4308-1.5804 0.24688-1.6369 0.12487-0.36736-0.79406 1.2903-0.93395 1.1854-1.3064-0.75-2.6637-1.2375-0.86785-2.25-2.198-2.25-2.9559 0-0.75792-0.3375-1.378-0.75-1.378-1.2427 0.000049-5.996 6.4563-7.6266 10.359-1.9569 4.6836-4.6016 5.6786-16.963 6.382-9.1695 0.52174-9.9148 0.72406-10.938 2.9693-0.80562 1.7681-0.78168 3.9398 0.08995 8.1598 0.65326 3.1627 1.2441 7.5234 1.3129 9.6903l0.1254 3.941 0.68647-4.2079c0.46523-2.8517 1.5529-4.8895 3.3748-6.3226z"/>
</svg>
