<svg xmlns:rdf="http://www.w3.org/1999/02/22-rdf-syntax-ns#" xmlns="http://www.w3.org/2000/svg" viewBox="0 0 40 39" version="1.1" xmlns:cc="http://creativecommons.org/ns#" xmlns:dc="http://purl.org/dc/elements/1.1/">
 <path d="m13.216 38.194c-0.706-0.47-1.021-1.539-0.7-2.376 0.362-0.943-0.344-2.13-1.855-3.121-2.2798-1.493-2.5589-1.467-4.2454 0.396-0.9929 1.097-2.7301 1.863-3.8604 1.701-1.8416-0.263-2.0573-1.003-2.075-7.113-0.02442-8.423 1.4223-10.233 5.1777-6.478l2.5433 2.5433 4.4259-2.4737c4.1864-2.3398 4.3914-2.6576 3.7881-5.8734-0.366-1.953-0.228-3.4 0.324-3.4 2.0209 0 7.846 2.3479 9.7605 3.9341 1.1 0.91137 3.2811 2.2984 4.847 3.0823 3.239 1.622 7.653 6.492 7.653 8.444 0 2.4402-7.7188 8.4011-11.69 9.0279-3.9413 0.62205-7.0227 1.2181-10.685 2.0667-1.1688 0.27083-2.7027 0.10829-3.4089-0.3612zm4.034-1.856c-0.6875-0.27741-1.8125-0.27741-2.5 0s-0.125 0.50439 1.25 0.50439 1.9375-0.22697 1.25-0.50439zm14.25-2.904c5.9013-3.9578 6.7697-5.0616 5.6413-7.1702-2.183-4.08-7.096-7.264-11.207-7.264-4.514 0-13.223 3.064-16.192 5.697-1.5029 1.332-2.15 1.472-2.4774 0.535-0.5667-1.621-3.1645-4.232-4.211-4.232-0.442 0-0.8036 2.925-0.8036 6.5s0.36109 6.5 0.80242 6.5 1.7431-1.1959 2.8928-2.6575l2.0904-2.6575 2.4534 2.3048c4.798 4.508 15.993 5.811 21.011 2.445zm-7.5576-3.0857c-1.1675-3.0708-0.02481-7.4897 2.1201-8.1986 1.229-0.40622 1.2373-0.23262 0.05711 1.1971-0.90525 1.0966-1.1962 3.0457-0.84516 5.6626 0.61906 4.6155 0.10872 5.1285-1.332 1.339zm6.058-5.348c0-0.55 0.45-1 1-1s1 0.45 1 1-0.45 1-1 1-1-0.45-1-1zm-6.4182-7c3.4079 0 3.0049-1.5998-0.73101-2.9022-4.7758-1.6649-5.6347-1.4182-5.0844 1.4602 0.33003 1.7264 0.96171 2.3766 1.9431 2 0.799-0.307 2.542-0.558 3.872-0.558zm11.112-0.639c-0.933-0.934 0.194-2.361 1.865-2.361 0.793 0 1.441 0.675 1.441 1.5 0 1.5062-2.111 2.0557-3.3061 0.86052zm-4-7c-0.933-0.9337 0.194-2.361 1.865-2.361 0.793 0 1.441 0.675 1.441 1.5 0 1.5062-2.111 2.0557-3.3061 0.86052zm2.752-7.4481c-1.03-1.6675 1.287-3.5795 2.667-2.2 1.154 1.1539 0.432 3.2871-1.113 3.2871-0.485 0-1.184-0.4892-1.554-1.0871z"/>
</svg>
