<?xml version="1.0" encoding="UTF-8" standalone="no"?>
<!-- Created with Inkscape (http://www.inkscape.org/) -->

<svg
   xmlns:dc="http://purl.org/dc/elements/1.1/"
   xmlns:cc="http://creativecommons.org/ns#"
   xmlns:rdf="http://www.w3.org/1999/02/22-rdf-syntax-ns#"
   xmlns:svg="http://www.w3.org/2000/svg"
   xmlns="http://www.w3.org/2000/svg"
   xmlns:sodipodi="http://sodipodi.sourceforge.net/DTD/sodipodi-0.dtd"
   xmlns:inkscape="http://www.inkscape.org/namespaces/inkscape"
   id="svg2"
   version="1.1"
   inkscape:version="0.91 r13725"
   width="46"
   height="36"
   viewBox="0 0 46 36"
   sodipodi:docname="mouse.svg">
  <metadata
     id="metadata8">
    <rdf:RDF>
      <cc:Work
         rdf:about="">
        <dc:format>image/svg+xml</dc:format>
        <dc:type
           rdf:resource="http://purl.org/dc/dcmitype/StillImage" />
        <dc:title></dc:title>
      </cc:Work>
    </rdf:RDF>
  </metadata>
  <defs
     id="defs6" />
  <sodipodi:namedview
     pagecolor="#ffffff"
     bordercolor="#666666"
     borderopacity="1"
     objecttolerance="10"
     gridtolerance="10"
     guidetolerance="10"
     inkscape:pageopacity="0"
     inkscape:pageshadow="2"
     inkscape:window-width="1017"
     inkscape:window-height="485"
     id="namedview4"
     showgrid="false"
     inkscape:zoom="6.5555556"
     inkscape:cx="23"
     inkscape:cy="18"
     inkscape:window-x="1895"
     inkscape:window-y="424"
     inkscape:window-maximized="0"
     inkscape:current-layer="svg2" />
  <path
     style="fill:#000000"
     d="M 11,35.2 C 11,34.576667 9.3918961,32.458563 7.4264359,30.493103 4.3777084,27.444375 3.8942391,26.346601 4.1345384,23.018461 4.322932,20.409213 3.8436954,18.484767 2.6873364,17.207004 1.2238995,15.589925 1.0672192,14.160769 1.6668121,7.898313 2.2664117,1.6357867 2.4824973,1.0087544 3.0743552,3.8139359 3.4589145,5.6366006 3.3004607,8.6693501 2.7222357,10.553379 1.8399386,13.428166 1.9657021,14.30462 3.5044897,16.004961 l 1.8335721,2.026074 2.1875733,-2.055118 c 3.2481489,-3.051478 8.0189969,-3.398674 16.5719889,-1.20602 7.419678,1.902118 7.625042,1.903832 8.768285,0.07321 0.871543,-1.395563 2.124158,-1.799373 4.902376,-1.580394 3.223048,0.25404 3.731715,0.631032 3.731715,2.76571 0,1.359367 1.0125,4.099692 2.25,6.089611 1.2375,1.989919 2.25,4.111586 2.25,4.714816 0,1.774768 -3.853086,3.323213 -7.817972,3.141819 -6.083776,-0.278334 -6.369021,-0.164422 -5.697637,2.275331 0.6086,2.211602 0.592097,2.21607 -0.967054,0.261769 -1.455643,-1.824561 -1.443306,-2.092734 0.149872,-3.257693 1.140308,-0.833814 3.31186,-1.060429 6.327824,-0.660347 3.507404,0.465274 4.900946,0.236535 5.901138,-0.968622 1.111824,-1.339667 0.828535,-2.184886 -1.877412,-5.601422 C 40.266009,19.810658 38.419755,18 37.915971,18 37.412187,18 37,17.1 37,16 c 0,-1.1 -0.626855,-2 -1.393011,-2 -1.821476,0 -2.964026,3.042963 -1.639772,4.367217 1.910217,1.910217 1.054243,2.96218 -0.941023,1.156488 -3.135447,-2.837541 -16.681367,-5.693645 -21.214509,-4.472997 -6.4645194,1.740714 -8.8746014,8.251483 -4.8449543,13.088508 1.6499134,1.980489 1.97209,2.078879 2,0.610784 C 8.9850288,27.7875 9.4765576,27 10.059017,27 c 0.582459,0 0.812849,0.398309 0.511976,0.885131 -0.300873,0.486822 -0.0504,2.309793 0.556603,4.051047 0.607004,1.741253 0.826615,3.442944 0.488024,3.781535 C 11.277029,36.056304 11,35.823333 11,35.2 Z M 40.5,16 C 40.839919,15.45 40.416476,15 39.559017,15 38.701558,15 38,15.45 38,16 c 0,0.55 0.423442,1 0.940983,1 0.517541,0 1.219098,-0.45 1.559017,-1 z M 27.523918,34.075361 C 26.965398,32.315618 26.051714,32 21.515946,32 c -2.942104,0 -5.499279,0.418551 -5.682613,0.930114 -0.183333,0.511563 -1.206841,0.286563 -2.274463,-0.5 C 11.811278,31.142587 12.334722,31 18.80887,31 25.333333,31 26,30.814586 26,29 c 0,-3.711559 1.732017,-2.034626 2.304139,2.230859 0.626173,4.668467 0.242565,6.067013 -0.780221,2.844502 z M 38.510081,22.983688 c 0.345464,-0.558971 1.047021,-0.757414 1.559017,-0.440983 C 41.456142,23.399945 41.197509,24 39.440983,24 38.583524,24 38.164618,23.54266 38.510081,22.983688 Z"
     id="path4138"
     inkscape:connector-curvature="0" />
</svg>
