<svg xmlns:rdf="http://www.w3.org/1999/02/22-rdf-syntax-ns#" xmlns="http://www.w3.org/2000/svg" viewBox="0 0 195 78" version="1.1" xmlns:cc="http://creativecommons.org/ns#" xmlns:dc="http://purl.org/dc/elements/1.1/">
 <g>
  <path d="m20 75.5c-0.9961-1.2002-0.98263-1.816 0.06739-3.0812 1.0212-1.2304 1.0519-1.9981 0.13866-3.4605-1.4242-2.2805-0.65044-4.6825 1.7542-5.4457 2.0057-0.63659 6.5089 0.81958 7.5016 2.4257 1.195 1.933 12.719 1.259 16.038-0.939 3.6039-2.3868 5.8192-2.5253 7.5246-0.47039 0.91455 1.102 0.98736 2.1504 0.26042 3.75-0.68124 1.4991-0.67731 2.7447 0.01212 3.8345 2.5978 4.106-3.461 6.7419-7.856 3.4177-2.6266-1.9867-14.256-1.9867-16.882 0-2.511 1.899-6.97 1.882-8.559-0.032zm16.689-3.5c4.9601 0 7.4199 0.52232 10.016 2.1268 4.0504 2.5033 6.2141 1.4593 4.3181-2.0834-0.87919-1.6428-0.88078-2.5102-0.0066-3.5636 1.2778-1.5397 0.5292-3.4923-1.3257-3.4576-0.654 0.012-2.315 0.902-3.69 1.978-3.6138 2.8268-14.014 2.7726-18.657-0.09725-4.1799-2.5833-7.0352-1.9846-5.1248 1.0746 0.9739 1.5595 0.9955 2.4513 0.09432 3.8944-2.0417 3.2692 0.45695 4.4621 4.4329 2.1162 2.442-1.441 5.179-1.988 9.944-1.988zm-36.689-16c0-0.55 1.35-1 3-1h3v-7.4349c0-4.089 0.4224-8.546 0.9387-9.904 2.2399-5.891 8.6943-8.677 14.492-6.254 5.413 2.261 6.569 4.869 6.569 14.816v8.777h7.5 7.5v-17-17h-21.5c-13.667 0-21.5-0.364-21.5-1 0-0.639 8.6688-1 24.007-1h24.006l-5.657-8.5-5.656-8.5h-18.35c-11.567 0-18.35-0.3697-18.35-1 0-0.6313 6.9492-1 18.847-1h18.847l6.6525 9.9917c3.659 5.4953 6.653 10.22 6.653 10.5 0 0.279-1.35 0.508-3 0.508h-3v18.038 18.038l-9.25-0.288-9.25-0.288-0.286-9.691c-0.27752-9.4199-0.37056-9.7626-3.3267-12.25-3.454-2.907-5.788-3.179-9.742-1.134-3.9584 2.047-5.145 5.535-5.145 15.122v8.453h-4c-2.2 0-4-0.45-4-1zm0-4c0-0.55 0.9-1 2-1s2 0.45 2 1-0.9 1-2 1-2-0.45-2-1zm31.5 0c-0.381-0.616 1.323-1 4.441-1 2.782 0 5.059 0.45 5.059 1s-1.998 1-4.441 1-4.719-0.45-5.059-1zm-31.5-9c0-0.55 0.9-1 2-1s2 0.45 2 1-0.9 1-2 1-2-0.45-2-1zm31.5 0c0.33992-0.55 2.6165-1 5.059-1 2.443 0 4.441 0.45 4.441 1s-2.277 1-5.059 1c-3.118 0-4.822-0.384-4.441-1zm-31.5-8c0-0.55 0.9-1 2-1s2 0.45 2 1-0.9 1-2 1-2-0.45-2-1zm31.5 0c-0.381-0.616 1.323-1 4.441-1 2.782 0 5.059 0.45 5.059 1s-1.998 1-4.441 1-4.719-0.45-5.059-1zm-31.5-9c0-0.63415 7.5-1 20.5-1s20.5 0.36585 20.5 1-7.5 1-20.5 1-20.5-0.366-20.5-1z"/>
  <path d="m165.39 56.25c0.36055-8.6625 0.92778-19.673 1.2605-24.468 0.55651-8.0191 0.75023-8.6398 2.4178-7.7473 1.1923 0.63811 2.0284 0.6214 2.4427-0.0488 0.34638-0.56046 1.1149-0.71918 1.7079-0.3527 1.4016 0.86623 13.166 0.86623 14.567 0 0.59296-0.36647 1.3615-0.20775 1.7079 0.3527 0.42406 0.68615 1.2434 0.6906 2.5084 0.01361 1.2851-0.68778 2.0874-0.66761 2.5394 0.06383 1.2212 1.9759-0.55367 2.3357-12.323 2.4985-14.01 0.194-13.22 0.078-13.22 1.938 0 1.2564 2.1111 1.5 13 1.5 8 0 13 0.38462 13 1 0 0.61728-5.1667 1-13.5 1h-13.5l-0.004 6.25c-0.002 3.4375-0.29667 11.988-0.65432 19l-0.66 12.75h14.16c8.77 0 14.15 0.38 14.15 1 0 0.62262-5.7114 1-15.134 1h-15.134zm3.61 5.75c0-0.61538 5-1 13-1s13 0.38462 13 1-5 1-13 1-13-0.38462-13-1zm9-9.5c-0.68469-0.825-2.0347-1.5-3-1.5-3.2221 0-4.3205-2.4871-2.9639-6.7113 2.0232-6.2997 2.959-6.8457 11.508-6.7135 8.3259 0.12869 8.6666 0.34204 10.608 6.6431 1.28 4.151 0.06 6.782-3.15 6.782-0.96531 0-2.3153 0.675-3 1.5-0.70213 0.84602-2.8821 1.5-5 1.5s-4.2979-0.65398-5-1.5zm9.4286-2.0714c3.49-3.488 0.58-10.429-4.36-10.429-4.7294 0-7.3447 5.3991-4.6256 9.549 1.8813 2.8712 6.5409 3.3272 8.9884 0.87961zm-5.43-3.429c0-0.55 0.45-1 1-1s1 0.45 1 1-0.45 1-1 1-1-0.45-1-1zm-3-3c0-0.55 0.42344-1 0.94098-1s1.2191 0.45 1.559 1c0.33992 0.55-0.0835 1-0.94098 1-0.86 0-1.56-0.45-1.56-1zm6 0c0-0.55 0.45-1 1-1s1 0.45 1 1-0.45 1-1 1-1-0.45-1-1zm-7.4935-4.0105c0.55225-0.89356 0.41066-1.0563-0.45401-0.52194-1.7857 1.1036-4.25 7.4038-3.4208 8.7455 0.39093 0.63253 1.2156-0.63703 1.8838-2.9 0.65365-2.2138 1.5496-4.6094 1.991-5.3236zm14.255 3.3698c-0.82785-2.0756-2.0042-3.9401-2.6141-4.1434-0.67272-0.22424-0.52894 0.74228 0.36553 2.4572 0.81092 1.5548 1.4772 3.9294 1.4806 5.2769 0.005 1.8257 0.295 2.1612 1.1396 1.3165 0.84465-0.84465 0.74994-2.0951-0.37168-4.9072zm-56.76-13.391c0-5.6401-0.22664-6.2295-3.5-9.1036-1.925-1.6902-3.5-3.6101-3.5-4.2665s1.7065-2.8598 3.7922-4.8964c3.14-3.0627 4.51-3.703 7.93-3.703 3.91 0 7.28-1.8848 7.28-4.0714 0-1.292-1.37-1.1592-2.8 0.2714-0.93 0.9333-1.2 0.8152-1.2-0.5314 0-2.3968 2.8374-3.2598 4.6752-1.422 1.2012 1.2012 1.2824 1.9641 0.38728 3.6367-1.08 2.0199-0.91 2.1167 3.7 2.1167 4.32 0 5.2463 0.42405 8.7381 4l3.9059 4-3.703 3.7922c-3.46 3.549-3.7 4.19-3.7 10v6.208h-11-11zm20-2.469c0-4.3449 0.39308-6.5 1.1856-6.5 0.65205 0 2.2335-0.98446 3.5142-2.1877l2.3287-2.1877-3.2104-3.3123c-3.64-3.7576-7.36-4.3446-8.32-1.314-1.21 3.816-9.5 3.351-9.5-0.533 0-2.557-4.2648-1.6005-7.6972 1.7263l-3.2924 3.1911 2.1691 2.3089c1.19 1.27 2.77 2.309 3.49 2.309 0.97 0 1.33 1.769 1.33 6.5v6.5h9 9zm-6.43-15.612c0.59-0.963-1.11-2.8574-2.57-2.8574-0.275 0-1.1202 0.3928-1.8781 0.87288-1.77 1.1195-0.57 3.0965 1.88 3.0965 1.0351 0 2.1912-0.50031 2.5691-1.1118z"/>
  <path d="m124.43 76.675c-0.27955-0.72851 0.39358-3.4285 1.4958-6l2-4.675h8.0355c6.41 0 8.03-0.298 8.03-1.474 0-1.863-5.64-4.918-6.5-3.522-0.34 0.548-1.69 0.996-3.01 0.996-1.3152 0-2.8299 0.78375-3.366 1.7417-1.1376 2.0327-2.4428 1.251-1.596-0.95591 0.61488-1.6024 7.9738-4.3261 10.471-3.8757 0.825 0.14877 2.2705 0.95927 3.2123 1.8011 2.3339 2.0863 7.9786 14.349 7.3542 15.976-0.72945 1.9009-25.408 1.8897-26.138-0.01187zm23.084-4.2976c-0.83-1.991-1.51-3.791-1.51-3.999s-3.74-0.378-8.31-0.378h-8.3148l-1.6852 3.5339c-0.92686 1.9437-1.6852 3.7437-1.6852 4 0 0.256 5.18 0.466 11.51 0.466h11.513z"/>
 </g>
</svg>
