<svg xmlns:rdf="http://www.w3.org/1999/02/22-rdf-syntax-ns#" xmlns="http://www.w3.org/2000/svg" viewBox="0 0 256.25 101.25" version="1.1" xmlns:cc="http://creativecommons.org/ns#" xmlns:dc="http://purl.org/dc/elements/1.1/">
 <g>
  <path d="m0.84927 94.183c-0.4671-0.467-0.84927-17.35-0.84927-37.516v-36.667l15.312-0.015 15.313-0.016 2.824-4.359c2.6878-4.1493 3.1701-4.3588 10-4.3441 6.8045 0.01467 7.3209 0.23924 9.9755 4.3376l2.7994 4.3221 15.951 0.34994 15.95 0.349v36.875 36.875l-43.213 0.32844c-23.768 0.181-43.596-0.053-44.063-0.52zm85.401-4.808v-3.125h-41.875-41.875v3.125 3.125h41.875 41.875zm0-16.25v-10.625h-5-5v9.375c0 5.4167-0.52778 9.375-1.25 9.375s-1.25-3.9583-1.25-9.375v-9.375h-6.25-6.25v8.6762c0 4.7719-0.5625 9.0239-1.25 9.4488-0.79122 0.489-1.25-2.6954-1.25-8.6762v-9.4488h-14.375-14.375v9.375c0 5.4167-0.52778 9.375-1.25 9.375s-1.25-3.9583-1.25-9.375v-9.375h-6.25-6.25v9.375c0 5.4167-0.52778 9.375-1.25 9.375s-1.25-3.9583-1.25-9.375v-9.375h-5-5v10.625 10.625h41.875 41.875zm-73.75-22.5v-9.375h-5-5v9.375 9.375h5 5zm15 0v-9.375h-6.25-6.25v9.375 9.375h6.25 6.25zm15 0v-9.375h-6.25-6.25v9.375 9.375h6.25 6.25zm16.25 0v-9.375h-6.875-6.875v9.375 9.375h6.875 6.875zm15 0v-9.375h-6.25-6.25v9.375 9.375h6.25 6.25zm12.5 0v-9.375h-5-5v9.375 9.375h5 5zm-73.75-18.75c0-3.781 0.562-6.875 1.25-6.875s1.25 3.094 1.25 6.875v6.875h6.25 6.25v-6.875c0-3.781 0.562-6.875 1.25-6.875s1.25 3.094 1.25 6.875v6.875h6.25 6.25v-6.8012c0-3.7407 0.5625-7.1489 1.25-7.5738 0.7808-0.48256 1.25 2.0704 1.25 6.8012v7.5738h6.875 6.875v-7.5738c0-4.7309 0.4692-7.2838 1.25-6.8012 0.6875 0.4249 1.25 3.8331 1.25 7.5738v6.8012h6.25 6.25v-6.875c0-3.781 0.562-6.875 1.25-6.875 0.6875 0 1.25 3.0938 1.25 6.875v6.875h5 5v-8.125-8.125h-41.875-41.875v8.125 8.125h5 5zm39.96-12.813c-0.022-0.515-0.811-1.954-1.754-3.198-2.569-3.388-12.873-2.503-15.402 1.324l-1.859 2.812h9.5275c5.2401 0 9.5096-0.42188 9.4877-0.9375z"/>
  <path d="m107.5 36.622c0-6.3257-0.45018-7.5925-3.9994-11.254l-3.9994-4.1264 4.8781-4.9956c3.6913-3.7803 5.8559-4.9956 8.8972-4.9956 5.7162 0 7.9736-1.1428 7.9736-4.0368 0-2.0977-0.31381-2.2589-1.875-0.96321-1.5285 1.2686-1.875 1.2006-1.875-0.36778 0-2.4634 2.5046-3.3635 5.3238-1.9133 1.5797 0.81262 1.9815 1.9969 1.427 4.2061-0.7212 2.8735-0.45187 3.075 4.11 3.075 4.0641 0 5.7095 0.85077 9.823 5.0791l4.9412 5.0791-4.6875 4.3127c-4.323 3.9774-4.6875 4.8459-4.6875 11.171v6.8582h-13.125-13.125zm23.75-2.247c0-5.9728 0.44535-8.125 1.6813-8.125 0.9247 0 2.7082-1.1347 3.9632-2.5215 2.224-2.4575 2.1912-2.6163-1.2901-6.25-4.3489-4.5393-5.8387-4.6304-9.8657-0.60346-3.9029 3.9029-5.0743 3.9029-8.9773 0-4.0568-4.0568-6.7581-3.9449-10.973 0.45453l-3.4294 3.5795 3.8205 3.2148c3.49 2.933 3.82 3.875 3.82 10.794v7.5807h10.625 10.625zm-7.66-18.553c1.63-1.974 0.63-3.322-2.47-3.322-2.9491 0-4.3781 2.4993-2.2131 3.8706 2.3484 1.4875 3.0638 1.4038 4.6837-0.54812z"/>
  <path d="m167.02 51.91c-11.15-3.974-19.73-18.13-17.66-29.145 2.85-15.205 13.92-23.642 29.53-22.513 16.33 1.1815 26.81 15.491 23.48 32.058-1.0724 5.328-2.5276 7.9035-7.169 12.688-8.1703 8.4218-17.513 10.713-28.179 6.912zm20.253-3.9055c15.286-7.6176 18.175-26.373 5.9447-38.603-9.8352-9.8352-23.74-9.9236-33.82-0.21495-8.5738 8.258-10.205 17.445-4.9633 27.963 6.4419 12.927 19.811 17.346 32.838 10.854zm-20.39-1.331c-12.799-6.7473-16.638-21.15-8.8068-33.04 5.8172-8.8321 19.17-11.75 28.855-6.3066 15.903 8.9382 15.207 31.602-1.2003 39.053-6.2184 2.8243-13.823 2.9426-18.848 0.29337zm15.899-1.4513c1.9208-0.76195 1.7092-1.6296-1.9896-8.1554l-4.1391-7.3028-2.0729 7.3878c-1.1401 4.0633-2.0729 7.7728-2.0729 8.2433 0 1.0835 7.422 0.95866 10.274-0.17288zm-10.914-7.231c1.1207-3.8551 1.8087-7.2384 1.5288-7.5182-0.61916-0.61916-11.857 5.5603-12.756 7.0139-0.68 1.085 6.27 7.513 8.12 7.513 0.58597 0 1.9824-3.1542 3.1031-7.0094zm19.904 0.66345c1.77-2.115 3.23-4.273 3.23-4.795 0-0.756-13.24-5.109-15.54-5.109-0.3186 0 1.1977 3.0938 3.3695 6.875s4.3428 6.875 4.8243 6.875c0.48153 0 2.3317-1.7307 4.1116-3.8459zm-25.681-7.666 7.0121-4.0119-4.9849-1.421c-12.03-3.427-11.87-3.432-11.85 0.359 0.02 4.001 1.23 9.086 2.16 9.086 0.35177 0 3.795-1.8054 7.6516-4.0119zm30.15-3.8006c-0.0273-4.4932-1.4063-8.4393-2.9412-8.4162-0.77919 0.01175-4.1886 1.653-7.5764 3.6474l-6.1597 3.6261 6.1597 1.8906c8.7944 2.6992 10.538 2.5753 10.518-0.74781zm-23.886-5c-0.82005-1.5469-2.8418-4.9632-4.4927-7.5919-2.5226-4.0166-3.3023-4.5299-4.8854-3.216-1.7604 1.461-5.9484 8.4999-5.1885 8.7205 2.393 0.69463 15.436 4.6423 15.701 4.7522 0.19607 0.08127-0.31446-1.1179-1.1345-2.6647zm20.019-6.6649c0.8723-0.82168-2.7139-4.3885-6.2519-6.218l-3.4433-1.7806-1.9602 6.7429c-1.0781 3.7086-1.9602 7.3449-1.9602 8.0806 0 1.0381 11.26-4.6062 13.616-6.8249zm-13.009-5.4382 0.9227-4.201-5.2909 0.70966c-2.91 0.39031-5.7567 1.1759-6.326 1.7458-0.56928 0.56988 0.7242 4.0827 2.8744 7.8062l3.9094 6.7701 1.4938-4.3149c0.82163-2.3732 1.9091-6.2053 2.4166-8.5159z"/>
  <path d="m212.08 94.167c-0.46-0.459-0.83-12.921-0.83-27.694 0-26.314-0.0484-26.817-2.3759-24.71-1.4148 1.2804-2.6849 1.6502-3.1397 0.91432-0.42009-0.67971 0.87652-2.4039 2.8814-3.8314 3.35-2.391 5.37-2.596 25.64-2.596h21.995v29.375 29.375h-21.667c-11.917 0-22.042-0.375-22.5-0.83333zm41.67-12.292v-10.625h-18.051c-10.686 0-18.366-0.51004-18.824-1.25-0.50196-0.8122 5.8204-1.25 18.051-1.25h18.824v-15-15h-20-20v26.875 26.875h20 20zm-23.59-18.904c-2.3568-1.6508-2.7926-2.8743-2.3372-6.5625 0.30783-2.4934 0.0657-5.8734-0.53806-7.511-0.60375-1.6377-0.76425-4.0283-0.35666-5.3125 0.93498-2.9458 5.0544-3.0368 6.6764-0.1474 1.1696 2.0833 1.2682 2.0833 2.0708 0 1.117-2.8991 5.2122-2.8009 6.1479 0.1474 0.40759 1.2842 0.17825 3.8152-0.50963 5.6245-0.68787 1.8093-0.92486 4.9187-0.52662 6.9099 0.5347 2.6735 0.0362 4.3082-1.9061 6.2505-3.1611 3.1611-4.8953 3.2807-8.7208 0.60114zm7.3351-2.3393c0.85283-1.0276 1.2181-3.137 0.8118-4.6875-0.40633-1.5505-0.0836-4.6331 0.71722-6.8502 0.80081-2.2171 1.0363-4.4508 0.5233-4.9638-1.2672-1.2671-3.2541 2.1019-3.2776 5.5574-0.0112 1.6582-0.7887 2.8125-1.8941 2.8125s-1.8828-1.1543-1.8941-2.8125c-0.0228-3.3373-1.9948-6.8402-3.1824-5.6526-0.46062 0.46062-0.21598 2.6204 0.54366 4.7995s1.0431 5.3089 0.62994 6.955c-1.326 5.2833 3.751 8.7841 7.0224 4.8423zm-5.62-4.382c-0.4249-0.6875-0.17685-1.25 0.55122-1.25 0.72808 0 1.3238 0.5625 1.3238 1.25s-0.24805 1.25-0.55123 1.25c-0.30317 0-0.89887-0.5625-1.3238-1.25zm3.125 0c0-0.6875 0.5625-1.25 1.25-1.25s1.25 0.5625 1.25 1.25-0.5625 1.25-1.25 1.25-1.25-0.5625-1.25-1.25z"/>
  <path d="m165.48 95.318c-1.2965-3.2624-2.5448-6.3562-2.774-6.875-0.23-0.518 7.56-0.943 17.32-0.943 13.688 0 17.596 0.3567 17.116 1.5625-0.34187 0.85938-1.5881 3.9531-2.7695 6.875l-2.1479 5.3125h-12.194-12.194zm26.11 1.244c0.34592-1.2031 1.0342-3.1719 1.5295-4.375 0.82-2.006-0.25-2.187-12.99-2.187-7.63 0-13.88 0.309-13.88 0.687 0 0.37789 0.8582 2.3466 1.9071 4.375 1.8811 3.6376 2.0496 3.6879 12.354 3.6879 8.8767 0 10.542-0.32883 11.076-2.1875zm-21.33-12.053c0.19937-1.3013 1.2062-2.7608 2.2375-3.2432 1.0312-0.48246 3.133-1.5271 4.6705-2.3215 1.5376-0.79435 3.6902-1.4443 4.7836-1.4443 2.3195 0 9.9643 7.2481 8.8355 8.377-0.42065 0.42066-2.1498-0.72958-3.8426-2.5561-3.05-3.301-6.94-4.46-6.94-2.071 0 0.6875-1.4849 1.25-3.2997 1.25s-4.0873 0.98438-5.05 2.1875c-1.6514 2.0639-1.7298 2.0538-1.3878-0.17852z"/>
 </g>
</svg>
