<svg xmlns:rdf="http://www.w3.org/1999/02/22-rdf-syntax-ns#" xmlns="http://www.w3.org/2000/svg" viewBox="0 0 224 82" version="1.1" xmlns:cc="http://creativecommons.org/ns#" xmlns:dc="http://purl.org/dc/elements/1.1/">
 <g>
  <path d="m0.23704 46.25 0.26296-34.75h35.5 35.5l0.26296 34.75 0.263 34.75h-36.026-36.026zm69.763 29.75v-4h-34-34v4 4h34 34zm0-34.5v-29.5h-34-34v29.5 29.5h34 34zm-17.027-13.027c-3.528-3.56-5.964-6.473-5.413-6.473 1.3027 0 12.981 11.792 12.327 12.447-0.27434 0.27434-3.3856-2.4139-6.9139-5.9738zm3.5583-2.4413c-4.9099-4.9328-8.7024-9.1934-8.4277-9.4681s4.7424 3.7612 9.9282 8.9687c5.186 5.206 8.978 9.467 8.427 9.467-0.55 0-5.018-4.036-9.928-8.969zm3.4933-3.5066c-2.974-3.0114-5.1829-5.6996-4.9087-5.9738 0.27422-0.27422 3.1588 2.1896 6.4101 5.4753 3.252 3.286 5.461 5.974 4.91 5.974-0.552 0-3.437-2.464-6.411-5.475zm16.976 40.975v-13.5h7 7v13.5 13.5h-7-7zm13 3.5v-9h-5.5-5.5v9 9h5.5 5.5zm0-13.5c0-2.389-0.267-2.5-6-2.5-5.7333 0-6 0.11111-6 2.5s0.26667 2.5 6 2.5 6-0.11111 6-2.5zm6.2238 22.324c-1.723-1.723 0.386-3.824 3.836-3.824 3.3405 0 4.5822 1.5172 2.9002 3.5438-1.4554 1.7537-5.1141 1.9057-6.7399 0.27999zm5.1887-0.42858c2.22-0.851 0.95-2.395-1.969-2.395-2.3762 0-3.1241 0.98352-1.7743 2.3333 0.8252 0.8252 1.7182 0.83995 3.7458 0.06188z"/>
  <path d="m134.57 76.429c-2.0926-2.0926-1.981-3.139 0.47478-4.4533 5.1341-2.7477 12.816 1.3881 8.5127 4.5833-2.5581 1.8996-7.0225 1.835-8.9874-0.13zm7.5589-0.49831c1.5962-0.85425 1.7597-1.3578 0.81181-2.5-1.6264-1.9597-6.8466-1.8428-7.6192 0.17066-1.1009 2.8689 3.1082 4.3091 6.8074 2.3293zm-22.81-0.532c-1.0405-2.7115 3.5024-4.4289 6.5728-2.4847 2.33 1.473 0.48 4.086-2.89 4.086-1.8858 0-3.2988-0.61522-3.6771-1.6009zm6.68-0.34c0-0.51754-0.45403-1.2216-1.009-1.5645-1.4137-0.87372-5.1437 0.44958-4.4466 1.5775 0.75163 1.2162 5.4555 1.205 5.4555-0.01298zm48.441 0.49955c-4.407-3.2725 3.6696-8.0733 9.1174-5.4195 3.4665 1.6886 4.0025 3.157 1.9147 5.2449-2.0124 2.0124-8.4206 2.1139-11.032 0.17464zm9.4546-0.47296c0.76764-0.48607 1.1193-1.6042 0.78138-2.4847-0.70261-1.831-7.2175-2.2124-9.6771-0.56661-3.478 2.3272 5.2897 5.3346 8.8957 3.0513zm16.113 0.20789c-1.4054-0.98442-3.8268-1.5867-5.7225-1.4234-3 0.258-3.28 0.044-3.28-2.56 0-4.2123 3.1969-9.411 7.0617-11.484 4.3571-2.3367 6.6527-2.2988 10.713 0.17693 8.1 4.941 6.24 16.996-2.63 16.996-2.0377 0-4.8013-0.76792-6.1413-1.7065zm10.997-2.0277c4.33-5.497-0.09-13.266-7.54-13.266-5.3296 0-9.0237 2.8098-10.597 8.0601-1.3768 4.5952-0.90722 5.4186 2.5896 4.5409 1.75-0.437 2.55-1.319 2.55-2.791 0-2.992 2.83-5.81 5.83-5.81 2.96 0 6.17 2.602 6.17 5 0 2.334-3.3747 5.1772-5.2781 4.4468-1.94-0.74444-2.9674-3.1771-1.6783-3.9738 0.52598-0.32507 0.95633 0.11052 0.95633 0.96798 0 1.9966 3.5994 2.0453 4.3616 0.05902 1.591-4.146-3.9323-7.1035-7.4019-3.9635-2.6046 2.3571-2.4841 5.9828 0.2628 7.9068 3.4548 2.4198 7.3193 1.9547 9.7831-1.1775zm-54.646-1.7722c-0.91867-2.394 0.93239-3.6827 4.7637-3.3165 2.62 0.248 3.39 0.781 3.39 2.322 0 1.5901-0.77028 2.0637-3.758 2.3108-2.7484 0.22734-3.9259-0.12653-4.3828-1.3172zm6.73-0.994c0.0119-0.55-0.70332-1.1506-1.5895-1.3346-2.3429-0.48651-4.7279 0.64772-3.9634 1.8848 0.80659 1.3051 5.5227 0.83776 5.5529-0.55025zm-7.08-11c0-2.1111 0.46667-2.5 3-2.5 3.8213 0 3.8354 0.74786-0.48854-26-1.9116-11.825-3.4431-22.4-3.4033-23.5 0.13221-3.66 1.622 3.556 4.5421 22l2.8498 18 0.52838-23 0.52838-23 0.33728 22.5 0.33727 22.5 2.9113-18c3.38-20.896 3.78-22.908 4.45-22.24 0.42 0.4191-5.45 39.627-7.18 47.99-0.52 2.528-0.32 2.75 2.51 2.75 2.62 0 3.08 0.375 3.08 2.5 0 2.4286-0.2 2.5-7 2.5s-7-0.07143-7-2.5zm13 0c0-1.1515-1.2778-1.5-5.5-1.5s-5.5 0.34848-5.5 1.5 1.2778 1.5 5.5 1.5 5.5-0.34848 5.5-1.5zm8.25 0.83772c-0.6875-0.27741-1.25-1.3583-1.25-2.402 0-2.7009 4.6483-3.724 6.8346-1.5043 1.5546 1.5784 1.5363 1.7864-0.27577 3.1296-1.9992 1.4819-3.1454 1.6496-5.3089 0.7766zm5.75-2.221c0-1.0756-3.0291-1.9496-4.75-1.3705-2.37 0.798-1.24 2.254 1.75 2.254 1.65 0 3-0.39752 3-0.88337zm4-32.232v-23.115l-2.75 1.7592-2.75 1.7592 2.42-2.6442 2.43-2.6442h18.82 18.83v24 24h-18.5-18.5zm35 12.615v-9.5l-16.25-0.223-16.25-0.224 16.25-0.301 16.25-0.302v-12.975-12.975h-17-17v23 23h17 17zm-24.75-18.619c-1.7875-0.51612-3.235-1.263-3.2168-1.6598 0.0854-1.855 5.8422-8.86 8.2256-10.009 4.2624-2.055 8.7378-0.33708 12.083 4.6384 1.5632 2.3248 2.6143 4.8204 2.336 5.5459-0.96648 2.5186-12.733 3.4178-19.428 1.4847zm17.918-1.6678c0.38-0.392-0.53-2.513-2.03-4.713-2.8232-4.1483-5.8497-5.2919-10.75-4.0621-2.8678 0.71978-7.2304 8.3394-5.1717 9.0328 4.459 1.5018 16.402 1.3307 17.949-0.25722zm-15.553-2.7727c-0.36448-0.94984-0.5396-1.7899-0.38916-1.8668 0.15045-0.07691 1.0713-0.75115 2.0464-1.4983 1.5435-1.1827 1.6914-1.1461 1.143 0.28297-0.42 1.084-0.11 1.642 0.9 1.642 0.84559 0 1.7324-1.0125 1.9708-2.25l0.43337-2.25 0.13618 2.25c0.0923 1.5253 0.77029 2.25 2.1048 2.25 1.4408 0 1.8049-0.46919 1.358-1.75-0.55771-1.5985-0.46523-1.6138 1.0681-0.17754 1.0309 0.96565 1.4179 2.2522 1.0028 3.3338-0.48015 1.2513-0.89073 1.4138-1.4177 0.56121-0.53166-0.86024-1.2638-0.90801-2.585-0.16864-1.2548 0.70219-2.4508 0.70637-3.7463 0.01309-1.3535-0.72435-2.1149-0.67565-2.6367 0.16864-0.51708 0.83666-0.9293 0.67728-1.3964-0.53988z"/>
  <path d="m91 28.743c0-1.2411 0.4591-3.8286 1.0202-5.75 0.91324-3.1271 0.76299-3.7182-1.4329-5.6377-1.3492-1.1794-3.0458-2.3826-3.7702-2.6739-2.4956-1.0034 1.4531-2.6505 6.3927-2.6665 4.6297-0.01505 4.7304-0.08386 5.9166-4.0431 0.66372-2.2153 1.6647-3.8752 2.2244-3.6886 0.55968 0.18656 1.772 2.5616 2.6941 5.2778 1.6743 4.9322 1.6818 4.9382 5.8158 4.6704 5.3426-0.34609 5.3821 1.3587 0.11794 5.083-4.4907 3.1771-4.6543 3.7328-2.2812 7.7501 2.502 4.2356 0.95126 4.6373-4.5944 1.1899l-4.9181-3.0573-2.7795 2.9012c-3.34 3.49-4.402 3.646-4.402 0.645zm7.371-4.743c0.4191 0 2.3192 1.1878 4.2225 2.6394 4.1297 3.1498 5.1241 2.6498 2.9792-1.4981l-1.5744-3.0445 4.5006-3.0965c2.47-1.703 4.5-3.244 4.5-3.425 0-0.18102-1.9676-0.10734-4.3725 0.16372l-4.3725 0.49284-1.2851-5.3571-1.2852-5.3571-1.8086 4.2586c-1.7772 4.1846-1.8766 4.2478-5.7167 3.6337-4.9538-0.79214-5.9076 0.66115-2.2222 3.3859 2.781 2.0561 2.8218 2.2164 1.5046 5.909-2.1347 5.9844-1.787 7.0005 1.363 3.9827 1.539-1.48 3.144-2.689 3.563-2.689z"/>
 </g>
</svg>
