<svg xmlns:rdf="http://www.w3.org/1999/02/22-rdf-syntax-ns#" xmlns="http://www.w3.org/2000/svg" viewBox="0 0 211 74" version="1.1" xmlns:cc="http://creativecommons.org/ns#" xmlns:dc="http://purl.org/dc/elements/1.1/">
 <g>
  <path d="m29.991 67.3c-0.004-3.74-0.292-9.162-0.639-12.05l-0.631-5.25h6.671 6.671l-0.281 11.75-0.282 11.75-5.75 0.3-5.75 0.3zm10.009-2.8v-7.5h-4.5-4.5v7.5 7.5h4.5 4.5zm0.814-11.25c-0.25-1.319-1.501-1.825-5.073-2.055-4.215-0.271-4.741-0.077-4.741 1.75 0 1.803 0.622 2.055 5.073 2.055 4.2917 0 5.0221-0.26963 4.741-1.75zm-40.814 18.178c0-0.38 6.075-8.271 13.5-17.537 7.425-9.265 13.5-17.668 13.5-18.672 0-3.427 5.088-12.045 9.526-16.136 5.467-5.039 9.474-5.58 9.474-1.279 0 5.37-11.257 19.122-15.753 19.243-1.037 0.028-7.235 6.977-15.247 17.094-13.115 16.559-15 18.732-15 17.287zm37.523-41.556c6.12-6.542 9.296-13.872 6.012-13.872-3.856 0-14.535 12.932-14.535 17.602 0 3.3853 3.1616 2.0016 8.5231-3.7304zm-5.0941 12.66c-0.88939-1.3574-1.4034-3.0449-1.1423-3.75 0.28172-0.76066 0.90489-0.20318 1.5323 1.3708 0.58163 1.4591 1.5084 2.9316 2.0596 3.2722 1.7099 1.0568 4.8091-3.29 6.5865-9.2379 0.93468-3.1279 1.898-6.3141 2.1407-7.0803 0.24269-0.76622 0.70675-1.1276 1.0312-0.80313 1.0248 1.0248-3.4596 14.129-5.6338 16.462-2.6941 2.8918-4.5699 2.825-6.5743-0.23402z"/>
  <path d="m47.238 36.75 0.262-36.25h61.5 61.5l0.26247 36.25 0.26 36.25h-62.02-62.025zm15.762 34.832c0-0.23002 0.27314-1.13 0.60699-2 0.398-1.038 0.055-1.582-1-1.582-0.884 0-1.607 0.45-1.607 1s-0.4875 1-1.0833 1c-0.59583 0-0.89583-0.5625-0.66667-1.25 0.22917-0.6875 1.5042-1.25 2.8333-1.25 1.863 0 2.3985 0.51545 2.3373 2.25-0.07939 2.2498-0.07809 2.25 17.25 2.25 9.531 0 17.329-0.188 17.329-0.418 0-0.23002 0.27314-1.13 0.60699-2 0.39-1.016 0.062-1.582-0.917-1.582-0.83801 0-1.7245 0.5625-1.9701 1.25-0.24554 0.6875-0.7781 0.94244-1.1835 0.56653-1.297-1.203 0.5-2.816 3.14-2.816 2.1888 0 2.4887 0.36042 2.0797 2.5l-0.48 2.5h34.36 34.36v-32.5-32.5h-54c-29.7 0-54 0.2571-54 0.5714 0 1.4633 3.112 3.4286 5.429 3.4286h2.571v10.5 10.5h-2.5c-1.942 0-2.5 0.51333-2.5 2.3 0 1.265 0.50975 2.8098 1.1328 3.4328 2.372 2.372 0.132 4.267-5.043 4.267-2.734 0-5.14-0.338-5.345-0.75s-0.119-7.275 0.191-15.25l0.564-14.5 3.5-0.618c1.925-0.3401 2.9375-0.6776 2.25-0.75-0.688-0.073-1.25-0.7835-1.25-1.5797 0-1.0332-1.503-1.553-5.25-1.8151-2.888-0.202 21.638-0.4505 54.5-0.5522 59.02-0.1827 59.75-0.2094 59.75-2.185 0-1.9778-0.67-2-60-2h-60v35 35h7c3.85 0 7-0.1882 7-0.41821zm11.116-2.3982c-0.09808-1.9587 0.30873-2.2676 2.634-2 2.7903 0.32106 3.8283 2.7903 1.4993 3.5666-0.794 0.264-1.028-0.162-0.643-1.167 0.392-1.021 0.063-1.584-0.926-1.584-0.84352 0-1.7395 0.7875-1.991 1.75-0.3345 1.28-0.48848 1.1278-0.57332-0.56642zm36.004 0.066c-0.0902-1.7505 0.42589-2.25 2.325-2.25 2.8683 0 4.2541 1.7049 2.6719 3.2871-0.82 0.817-1.12 0.661-1.12-0.587 0-2.2392-2.7232-2.1981-3.3107 0.05-0.34415 1.3169-0.48604 1.1932-0.57333-0.5zm25.522 0.25c0.35644-0.92887-0.005-1.5-0.94805-1.5-0.83801 0-1.7246 0.5625-1.9701 1.25-0.24554 0.6875-0.7781 0.94244-1.1835 0.56653-1.28-1.183 0.48-2.817 3.02-2.817 1.77 0 2.44 0.546 2.44 2 0 1.1-0.43588 2-0.96862 2-0.53273 0-0.70959-0.675-0.39301-1.5zm10.48-0.25c-0.0903-1.7505 0.42589-2.25 2.325-2.25 2.8683 0 4.2541 1.7049 2.6719 3.2871-0.82 0.817-1.12 0.661-1.12-0.587 0-2.2392-2.7232-2.1981-3.3107 0.05-0.34415 1.3169-0.48604 1.1932-0.57333-0.5zm-61.086-1c-0.03592-2.6577-2.674-3.0525-3.3411-0.5-0.34414 1.3169-0.48603 1.1932-0.57332-0.5-0.09025-1.7505 0.42589-2.25 2.325-2.25 3 0 3.9991 1.4143 2.6435 3.7421-0.91721 1.575-1.0269 1.5238-1.0541-0.49208zm36 0c-0.0359-2.6577-2.674-3.0525-3.3411-0.5-0.34415 1.3169-0.48604 1.1932-0.57333-0.5-0.0902-1.7505 0.42589-2.25 2.325-2.25 3 0 3.9991 1.4143 2.6436 3.7421-0.91721 1.575-1.0269 1.5238-1.0541-0.49208zm36 0c-0.0359-2.6577-2.674-3.0525-3.3411-0.5-0.34415 1.3169-0.48604 1.1932-0.57333-0.5-0.0903-1.7505 0.42589-2.25 2.325-2.25 3 0 3.9991 1.4143 2.6436 3.7421-0.91721 1.575-1.0269 1.5238-1.0541-0.49208zm-104.28 0.173c-1.732-1.747-0.631-3.423 2.25-3.423 2.4788 0 2.9798 0.39089 2.884 2.25-0.08729 1.6932-0.22918 1.8169-0.57332 0.5-0.572-2.186-3.053-2.3-3.488-0.16-0.178 0.874-0.661 1.249-1.073 0.833zm13.918-0.173c-1.153-1.834 0.107-3.25 2.891-3.25 1.774 0 2.441 0.546 2.441 2 0 1.1-0.43588 2-0.96862 2s-0.70959-0.675-0.39301-1.5c0.35745-0.93151-0.0056-1.5-0.95806-1.5-0.84352 0-1.6897 0.7875-1.8804 1.75-0.25368 1.2801-0.5577 1.4144-1.1323 0.5zm22 0c-1.153-1.834 0.107-3.25 2.891-3.25 1.8991 0 2.4152 0.49949 2.325 2.25-0.08729 1.6932-0.22918 1.8169-0.57332 0.5-0.252-0.962-1.067-1.75-1.811-1.75-0.74434 0-1.5094 0.7875-1.7001 1.75-0.25368 1.2801-0.5577 1.4144-1.1323 0.5zm14 0c-1.16-1.834 0.1-3.25 2.89-3.25 1.77 0 2.44 0.546 2.44 2 0 1.1-0.43588 2-0.96862 2-0.53273 0-0.70959-0.675-0.39301-1.5 0.35746-0.93151-0.006-1.5-0.95806-1.5-0.84351 0-1.6897 0.7875-1.8804 1.75-0.25367 1.2801-0.5577 1.4144-1.1323 0.5zm22 0c-1.1526-1.834 0.10721-3.25 2.8915-3.25 1.8991 0 2.4152 0.49949 2.325 2.25-0.0873 1.6932-0.22918 1.8169-0.57333 0.5-0.25-0.962-1.07-1.75-1.81-1.75-0.74434 0-1.5094 0.7875-1.7001 1.75-0.25367 1.2801-0.5577 1.4144-1.1323 0.5zm14 0c-1.16-1.834 0.1-3.25 2.89-3.25 1.77 0 2.44 0.546 2.44 2 0 1.1-0.43588 2-0.96862 2-0.53273 0-0.70959-0.675-0.39301-1.5 0.35746-0.93151-0.006-1.5-0.95806-1.5-0.84351 0-1.6897 0.7875-1.8804 1.75-0.25367 1.2801-0.5577 1.4144-1.1323 0.5zm22 0c-1.1526-1.834 0.10721-3.25 2.8915-3.25 1.8991 0 2.4152 0.49949 2.325 2.25-0.0873 1.6932-0.22918 1.8169-0.57333 0.5-0.25-0.962-1.07-1.75-1.81-1.75-0.74434 0-1.5094 0.7875-1.7001 1.75-0.25367 1.2801-0.5577 1.4144-1.1323 0.5zm-15.84-5.25c-0.37054-0.825-0.87715-9.4171-1.1258-19.093l-0.45206-17.593 4.32-0.06531c3.2169-0.04863 4.4323 0.35828 4.7598 1.5935 0.38918 1.468 0.4531 1.4575 0.55576-0.0912 0.0677-1.021 0.9186-1.75 2.0427-1.75 1.0597 0 2.1325 0.7875 2.384 1.75 0.43555 1.6667 0.46285 1.6667 0.57333 0 0.0693-1.0447 0.9221-1.75 2.116-1.75 1.6667 0 2 0.66667 2 4 0 2.2-0.43828 4-0.97395 4-0.57282 0-1.1116 6.075-1.3081 14.75l-0.33412 14.75 0.0581-16.751c0.052-14.992-0.117-16.751-1.6086-16.75-0.91666 0.000719-1.9292-0.56119-2.25-1.2487-0.46666-1-0.7-1-1.1667 0-0.84126 1.8027-3.1504 1.5364-4.3366-0.5-0.97075-1.6667-1.0207-1.6667-1.0497 0-0.0351 2.0215-3.59 2.4284-4.3681 0.5-0.27741-0.6875-0.53991-0.3275-0.58333 0.8-0.0434 1.1275 0.38319 2.5121 0.94803 3.077 0.63894 0.63894 0.92232 6.8544 0.75 16.45-0.16 8.482-0.58 14.747-0.95 13.922zm-74.83-6.853c0-2.6693-0.2891-7.6193-0.64246-11-0.541-5.176-0.397-6.147 0.916-6.147 0.85752 0 1.7861 0.5625 2.0635 1.25 0.40351 1 0.52018 1 0.58333 0 0.10281-1.6279 4.7598-1.6279 5.4167 0 0.40351 1 0.52018 1 0.58333 0 0.04342-0.6875 0.94145-1.25 1.9956-1.25s2.1436 0.5625 2.4211 1.25c0.40351 1 0.52018 1 0.58333 0 0.044-0.688 0.98-1.25 2.08-1.25 1.6125 0 2 0.66667 2 3.441 0 1.8925-0.45 3.7191-1 4.059-0.55 0.33992-1 3.7415-1 7.559 0 3.961-0.429 6.941-1 6.941-0.577 0-1-3.147-1-7.441 0-4.093 0.45-7.719 1-8.059s0.948-1.829 0.884-3.309c-0.073-1.693-0.286-2.042-0.573-0.941-0.58838 2.2515-2.9192 2.2515-4.2306 0-0.97074-1.6667-1.0207-1.6667-1.0497 0-0.019 1.073-0.804 1.75-2.031 1.75-1.2265 0-2.0118-0.6768-2.0304-1.75-0.02896-1.6667-0.07895-1.6667-1.0497 0-0.561 0.962-1.639 1.75-2.396 1.75-0.758 0-1.583-0.788-1.835-1.75-0.287-1.101-0.5-0.752-0.573 0.941-0.064 1.48 0.334 2.969 0.884 3.309 0.55 0.33992 1 3.9665 1 8.059 0 4.294-0.423 7.441-1 7.441-0.55 0-1-2.184-1-4.853zm5-3.647c0-2.1111 0.46667-2.5 3-2.5s3 0.38889 3 2.5-0.46667 2.5-3 2.5-3-0.38889-3-2.5zm5-0.5c0-0.55-0.675-1-1.5-1s-1.5 0.45-1.5 1 0.675 1 1.5 1 1.5-0.45 1.5-1zm69.18-11.25c0.2288-1.611 1.1005-2.3399 3.0696-2.5664 2.3678-0.27245 2.75 0.04022 2.75 2.25 0 2.197-0.44 2.566-3.07 2.566-2.6112 0-3.0218-0.33594-2.75-2.25zm4.82 0.25c0-0.55-0.675-1-1.5-1s-1.5 0.45-1.5 1 0.675 1 1.5 1 1.5-0.45 1.5-1zm-82-18c0-0.55 0.45-1 1-1s1 0.45 1 1-0.45 1-1 1-1-0.45-1-1zm3-3.059c0-0.58246 0.45-0.7809 1-0.44098s1 0.81648 1 1.059c0 0.243-0.45 0.441-1 0.441s-1-0.477-1-1.059zm-3-2.941c0-0.55 0.45-1 1-1s1 0.45 1 1-0.45 1-1 1-1-0.45-1-1zm3-3c0-0.55 0.47656-1 1.059-1 0.58246 0 0.7809 0.45 0.44098 1s-0.81648 1-1.059 1c-0.243 0-0.441-0.45-0.441-1zm-11 25c0-0.55-0.45-1-1-1s-1-1.35-1-3c0-2.5333-0.38889-3-2.5-3s-2.5 0.46667-2.5 3c0 1.65-0.45 3-1 3s-1 0.45-1 1 2.025 1 4.5 1 4.5-0.45 4.5-1zm3-17v-9h-5-5v9 9h5 5z"/>
  <path d="m177 51.5v-22.5h17 17v22.5 22.5h-17-17zm33 0v-20.5h-16-16v17.5 17.5l15.25 0.22194 15.25 0.22194-15.25 0.30411-15.25 0.30411v2.474 2.474h16 16zm-22.51-2.753c-3.36-2.889-2.61-4.898 3.03-8.205 5.2-3.048 6.48-3.168 6.48-0.609 0 2.2829 3.5347 3.6985 5.39 2.1587 1.8423-1.529 2.61-0.3303 2.61 4.0754 0 2.671-0.44 3.833-1.44 3.833-0.79254 0-1.7221-0.45483-2.0656-1.0107-0.3954-0.63977-1.4163-0.45626-2.7815 0.5-3.159 2.2126-8.1696 1.8812-11.22-0.74221zm11.695-1.4164c1.726-1.562 1.9294-1.5535 3.1621 0.13231 1.1935 1.6322 1.3174 1.5085 1.3174-1.3147 0-2.3949-0.29207-2.874-1.2615-2.0695-0.89603 0.74364-2.1371 0.59418-4.2837-0.51588-6.46-3.346-14.19-0.044-9.91 4.237 1.7793 1.7793 8.8355 1.4778 10.987-0.46938zm-3.18-7.3c0-0.53274-0.675-0.70959-1.5-0.39301s-1.5 0.75246-1.5 0.96862c0 0.216 0.68 0.393 1.5 0.393 0.825 0 1.5-0.43588 1.5-0.96862z"/>
 </g>
</svg>
