<?xml version="1.0" encoding="UTF-8" standalone="no"?>
<!-- Created with Inkscape (http://www.inkscape.org/) -->

<svg
   xmlns:dc="http://purl.org/dc/elements/1.1/"
   xmlns:cc="http://creativecommons.org/ns#"
   xmlns:rdf="http://www.w3.org/1999/02/22-rdf-syntax-ns#"
   xmlns:svg="http://www.w3.org/2000/svg"
   xmlns="http://www.w3.org/2000/svg"
   xmlns:sodipodi="http://sodipodi.sourceforge.net/DTD/sodipodi-0.dtd"
   xmlns:inkscape="http://www.inkscape.org/namespaces/inkscape"
   id="svg2"
   version="1.1"
   inkscape:version="0.91 r13725"
   width="49"
   height="45"
   viewBox="0 0 49 45"
   sodipodi:docname="dog.svg">
  <metadata
     id="metadata8">
    <rdf:RDF>
      <cc:Work
         rdf:about="">
        <dc:format>image/svg+xml</dc:format>
        <dc:type
           rdf:resource="http://purl.org/dc/dcmitype/StillImage" />
        <dc:title></dc:title>
      </cc:Work>
    </rdf:RDF>
  </metadata>
  <defs
     id="defs6" />
  <sodipodi:namedview
     pagecolor="#ffffff"
     bordercolor="#666666"
     borderopacity="1"
     objecttolerance="10"
     gridtolerance="10"
     guidetolerance="10"
     inkscape:pageopacity="0"
     inkscape:pageshadow="2"
     inkscape:window-width="777"
     inkscape:window-height="471"
     id="namedview4"
     showgrid="false"
     inkscape:zoom="0.92709556"
     inkscape:cx="49.50191"
     inkscape:cy="-43.952454"
     inkscape:window-x="1730"
     inkscape:window-y="323"
     inkscape:window-maximized="0"
     inkscape:current-layer="svg2" />
  <path
     style="fill:#000000"
     d="m 2.0153128,42.319551 c 0.012447,-1.479075 0.1853068,-1.550902 0.9237846,-0.383853 0.7894466,1.247597 1.1362888,1.247597 2.6473086,0 C 7.1056945,40.681273 7.2632547,40.689392 6.8342934,42 6.0846855,44.290281 1.9964463,44.561376 2.0153128,42.319551 Z m 26.6513542,1.013782 c -1.395361,-1.395361 -0.592408,-2.516593 0.909548,-1.27008 1.306295,1.084129 1.731788,1.062285 2.484688,-0.127555 0.746076,-1.179058 0.911209,-1.122875 0.923784,0.314302 0.01505,1.71939 -2.940466,2.460888 -4.31802,1.083333 z M 0.52306681,24.37326 C 0.75001398,12.856783 1.206631,8.5010999 2.4362596,6.1232604 4.1538456,2.8018152 7.8477585,1.5394292 6.4546056,4.75 6.0369511,5.7125 5.4813801,8.0326814 5.2200035,9.9059586 4.8154323,12.805507 4.9989331,13.214387 6.4541742,12.655959 7.3943446,12.295181 11.726771,12 16.081787,12 c 7.535406,0 7.919748,-0.108777 7.949964,-2.25 0.01746,-1.2375 1.524069,-3.7340151 3.348013,-5.5478113 3.001192,-2.9844945 3.563139,-3.1853265 5.914765,-2.113854 2.08929,0.9519444 3.539813,0.870074 7.401987,-0.4177833 4.42978,-1.47712744 4.899743,-1.4742032 6.040764,0.037587 0.680503,0.9016304 1.52146,3.1541451 1.868793,5.0055883 0.795947,4.2427593 -0.891639,6.2403873 -8.191882,9.6968893 L 35,18.974115 35,28.92804 C 35,34.485301 34.558298,39.154953 34,39.5 33.356477,39.897719 33,36.195743 33,29.115093 l 0,-11.002941 6.056804,-2.718132 c 6.8288,-3.064583 8.875383,-5.297933 8.181439,-8.9280638 C 46.596398,3.1083625 45.624803,2.6792175 40.429001,3.4583761 L 36,4.1225458 36,9.4388282 C 36,15.778983 34.292062,17.909733 30.569539,16.213638 28.864586,15.436809 28.005052,13.98938 27.510537,11.062366 26.738754,6.4942239 25,6.5153355 25,11.092849 l 0,2.974814 -10.706791,-0.283831 C 3.8346078,13.506579 3.5698421,13.442048 2.8713704,11 2.2743295,8.9125814 2.141714,9.1601302 2.0677984,12.5 2.0191096,14.7 1.5845562,21.675 1.102124,28 L 0.22497474,39.5 0.52306681,24.37326 Z M 34.436301,9.7363005 C 34.367341,4.5792155 33.041711,2.3862803 30.567217,3.3358326 29.44145,3.76783 29,5.3075137 29,8.8019485 c 0,5.4782985 0.537095,6.4084715 3.458849,5.9902345 1.739119,-0.248948 2.031725,-0.997074 1.977452,-5.0558825 z M 4.3494144,32 c 0,-4.675 0.1722558,-6.5875 0.3827907,-4.25 0.2105348,2.3375 0.2105348,6.1625 0,8.5 C 4.5216702,38.5875 4.3494144,36.675 4.3494144,32 Z m 5.0158162,-1.5 c 0.0026,-5.5 0.170532,-7.622415 0.3731739,-4.716478 0.2026419,2.905937 0.2005115,7.405937 -0.00473,10 C 9.5284247,38.377585 9.3626268,36 9.3652306,30.5 Z M 14.349414,32 c 0,-4.675 0.172256,-6.5875 0.382791,-4.25 0.210535,2.3375 0.210535,6.1625 0,8.5 C 14.52167,38.5875 14.349414,36.675 14.349414,32 Z M 19,30.5 c 0,-6.157379 0.359809,-9.39566 1,-9 0.55,0.339919 1,4.389919 1,9 0,4.610081 -0.45,8.660081 -1,9 -0.640191,0.39566 -1,-2.842621 -1,-9 z m 10.666667,8.833333 C 28.575355,38.242022 28.888846,21 30,21 c 0.596491,0 1,3.833333 1,9.5 0,9.502542 -0.0871,10.079568 -1.333333,8.833333 z M 24,32 c 0,-4 0.428571,-7 1,-7 0.571429,0 1,3 1,7 0,4 -0.428571,7 -1,7 -0.571429,0 -1,-3 -1,-7 z M 38.510081,5.9836881 C 38.855545,5.4247166 39.557102,5.2262742 40.069098,5.5427051 41.456142,6.399945 41.197509,7 39.440983,7 38.583524,7 38.164618,6.5426596 38.510081,5.9836881 Z"
     id="path4168"
     inkscape:connector-curvature="0" />
</svg>
