<svg xmlns:rdf="http://www.w3.org/1999/02/22-rdf-syntax-ns#" xmlns="http://www.w3.org/2000/svg" viewBox="0 0 43 46" version="1.1" xmlns:cc="http://creativecommons.org/ns#" xmlns:dc="http://purl.org/dc/elements/1.1/">
 <path d="m1 44.582c0-0.23009 2.025-2.7907 4.5-5.6902s4.5-6.0091 4.5-6.9102c0-2.6849 5.8873-10.748 9.4595-12.956 2.3376-1.4447 3.5117-3.0579 3.9584-5.439 0.34927-1.8618 1.2932-3.9313 2.0976-4.5989 0.804-0.6684 1.241-1.5717 0.972-2.008-0.27-0.4364 0.522-0.5324 1.761-0.2133 2.005 0.5168 2.101 0.3974 0.879-1.0933-0.755-0.9204-1.03-1.6734-0.611-1.6734 0.41921 0 1.36 0.7875 2.0906 1.75 1.2284 1.6182 1.3308 1.5781 1.3602-0.53222 0.02-1.4505-0.788-2.6119-2.218-3.1866-1.38-0.5548-1.651-0.9289-0.7-0.9678 2.08-0.08509 3.95 1.9101 3.95 4.215 0 1.0331 2.025 3.7642 4.5 6.0692 4.6325 4.3142 5.7844 8.1872 3.4657 11.652-0.88839 1.3277-1.1451 1.321-2.2347-0.05827-0.687-0.868-2.558-1.494-4.231-1.414-2.842 0.13644-3.0715 0.47384-4.3577 6.4055-1.1773 5.4298-1.8119 6.5295-4.7772 8.279-2.7552 1.6256-3.1925 2.2911-2.2509 3.4256 0.95442 1.15 0.82194 1.2779-0.72283 0.69796-1.6709-0.62731-1.7314-0.51336-0.519 0.97711 0.922 1.134 0.997 1.688 0.229 1.688-0.629 0-1.656-1.125-2.283-2.5-1.592-3.493-4.879-3.215-11.818 1-5.5108 3.348-7 4.003-7 3.082zm8.5-5.108c4.338-2.672 8.4-3.174 10.3-1.274 0.93333 0.93333 1.2 0.92177 1.2-0.05202 0-0.68861 1.288-1.701 2.8622-2.2498 2.6589-0.9269 5.1304-4.3843 5.1434-7.1953 0.0031-0.66162 0.4452-2.7854 0.98252-4.7194 0.90246-3.2483 1.2833-3.5245 4.9944-3.6218 2.868-0.075 4.018 0.304 4.018 1.325 0 0.787 0.45 1.153 1 0.813 1.544-0.954 1.182-7.104-0.5-8.5-1.203-0.998-1.834-0.973-3.187 0.128-1.491 1.212-1.605 1.151-0.976-0.523 0.915-2.437-1.866-5.605-4.921-5.605-2.8956 0-5.3572 2.4538-6.0782 6.059-0.34153 1.7077-2.4329 4.3942-5.308 6.8185-4.5899 3.8702-8.8689 10.617-7.5623 11.924 0.35133 0.35133 2.648-0.42711 5.1037-1.7299 3.0527-1.6195 4.645-3.1914 5.0341-4.97 0.97031-4.4344 1.2336-4.7151 1.3153-1.4022 0.06132 2.4849-0.6466 3.7512-3.1711 5.6721-1.7875 1.3602-4.4296 2.7673-5.8714 3.127-2.544 0.634-11.245 8.532-9.3319 8.47 0.5241-0.017 2.7529-1.14 4.9529-2.495zm21.5-27.533c0-0.58246 0.45-0.7809 1-0.44098s1 0.81648 1 1.059c0 0.243-0.45 0.441-1 0.441s-1-0.477-1-1.059z"/>
</svg>
