<?xml version="1.0" encoding="UTF-8" standalone="no"?>
<!-- Created with Inkscape (http://www.inkscape.org/) -->

<svg
   xmlns:dc="http://purl.org/dc/elements/1.1/"
   xmlns:cc="http://creativecommons.org/ns#"
   xmlns:rdf="http://www.w3.org/1999/02/22-rdf-syntax-ns#"
   xmlns:svg="http://www.w3.org/2000/svg"
   xmlns="http://www.w3.org/2000/svg"
   xmlns:sodipodi="http://sodipodi.sourceforge.net/DTD/sodipodi-0.dtd"
   xmlns:inkscape="http://www.inkscape.org/namespaces/inkscape"
   id="svg2"
   version="1.1"
   inkscape:version="0.91 r13725"
   width="47"
   height="26"
   viewBox="0 0 47 26"
   sodipodi:docname="turtle.svg">
  <metadata
     id="metadata8">
    <rdf:RDF>
      <cc:Work
         rdf:about="">
        <dc:format>image/svg+xml</dc:format>
        <dc:type
           rdf:resource="http://purl.org/dc/dcmitype/StillImage" />
        <dc:title></dc:title>
      </cc:Work>
    </rdf:RDF>
  </metadata>
  <defs
     id="defs6" />
  <sodipodi:namedview
     pagecolor="#ffffff"
     bordercolor="#666666"
     borderopacity="1"
     objecttolerance="10"
     gridtolerance="10"
     guidetolerance="10"
     inkscape:pageopacity="0"
     inkscape:pageshadow="2"
     inkscape:window-width="757"
     inkscape:window-height="484"
     id="namedview4"
     showgrid="false"
     inkscape:zoom="4.0425532"
     inkscape:cx="20.589619"
     inkscape:cy="28.54312"
     inkscape:window-x="1823"
     inkscape:window-y="396"
     inkscape:window-maximized="0"
     inkscape:current-layer="svg2" />
  <path
     style="fill:#000000"
     d="M 1.9304335,24.416177 C 0.97864988,23.269348 0.90503833,22.374098 1.6636386,21.171467 2.330756,20.113866 2.3705488,18.963811 1.7731906,18.00529 0.57209118,16.078005 6.355959,5.5490043 10.175508,2.7096406 11.660297,1.6058837 14.99813,0.5357064 17.675508,0.30498775 24.611126,-0.29267754 28.598309,2.1080117 32.947039,9.5 c 3.121607,5.306122 3.571149,5.710884 3.887208,3.5 0.505334,-3.534898 1.99628,-5 5.088198,-5 C 45.229046,8 47,9.6621992 47,12.765741 47,16.655306 45.196439,18.860862 40.983683,20.123035 38.328416,20.918572 37,21.895044 37,23.051299 37,24.005397 36.292401,25.057554 35.427558,25.389425 33.387832,26.172141 30,24.346627 30,22.464816 30,21.271399 28.054577,21 19.5,21 10.945423,21 9,21.271399 9,22.464816 9,23.881426 6.1163645,26 4.1881862,26 3.669373,26 2.6533842,25.28728 1.9304335,24.416177 Z M 6.8,22.8 C 8.3538046,21.246195 8.3313558,19.995941 6.75,20.015313 4.6392849,20.041169 2.7057043,21.714803 3.4309017,22.888197 4.3164898,24.321108 5.3047629,24.295237 6.8,22.8 Z m 28.352221,-0.325 c 0.0031,-1.3456 -2.899786,-3.060768 -3.746758,-2.213796 -0.872905,0.872905 1.576906,3.91134 2.819622,3.497101 0.508703,-0.169568 0.925914,-0.747055 0.927136,-1.283305 z m -2.673613,-4.466867 2.608808,-0.991867 -3.289152,-5.937512 C 28.004673,4.2306366 24.871472,2 19.046048,2 13.263784,2 9.3806134,4.3231787 6.8932993,9.2706066 5.7238216,11.596773 4.0973428,14.262438 3.278902,15.194307 c -1.3534729,1.541051 -1.1846404,1.78164 1.8665118,2.659812 4.4847016,1.29077 24.0532852,1.401033 27.3331942,0.154014 z m -22.446805,-4.6748 C 10.014312,12.141667 9.4375,10.939693 8.75,10.662281 7.9565655,10.342123 8.0965918,10.129059 9.1333686,10.078947 10.031721,10.035526 11.002093,9.1 11.289749,8 11.577405,6.9 12.313463,6 12.925432,6 13.612938,6 13.798344,6.9552815 13.410644,8.5 12.861472,10.688076 13.108634,11 15.391592,11 17.623156,11 18,10.566582 18,8 c 0,-1.65 0.45,-3 1,-3 0.55,0 1,1.35 1,3 0,2.533333 0.388889,3 2.5,3 2.663251,0 3.284383,-1.8156165 1.3,-3.8 C 23.14,6.54 22.975898,6 23.435329,6 c 1.42371,0 5.486506,4.930275 4.543209,5.513264 -0.490155,0.302932 -0.637698,1.211375 -0.327875,2.018761 C 27.960486,14.339411 27.715833,15 27.106989,15 26.498145,15 26,14.316427 26,13.480948 26,12.32731 25.338477,12.123794 23.25,12.63492 c -1.5125,0.370163 -3.0875,1.166237 -3.5,1.769052 -0.539533,0.788458 -0.960467,0.790791 -1.5,0.0083 -1.419678,-2.058941 -5.517713,-2.424199 -6.892987,-0.614373 -1.184274,1.558474 -1.29609,1.519275 -1.32521,-0.464578 z M 42.832582,17.25 C 45.761291,14.754933 46.121717,10.644421 43.5,9.6383736 41.419387,8.8399673 39,9.9250757 39,11.656649 39,12.450118 38.313444,14.426973 37.47432,16.04966 35.988209,18.923482 36.011271,19 38.363536,19 39.691729,19 41.7028,18.2125 42.832582,17.25 Z M 41,12 c 0,-0.55 0.476558,-1 1.059017,-1 0.582459,0 0.780902,0.45 0.440983,1 -0.339919,0.55 -0.816476,1 -1.059017,1 C 41.198442,13 41,12.55 41,12 Z"
     id="path4152"
     inkscape:connector-curvature="0" />
</svg>
